<?xml version="1.0" encoding="utf-8"?>
<!-- Generator: Adobe Illustrator 18.0.0, SVG Export Plug-In . SVG Version: 6.00 Build 0)  -->
<!DOCTYPE svg PUBLIC "-//W3C//DTD SVG 1.1//EN" "http://www.w3.org/Graphics/SVG/1.1/DTD/svg11.dtd">
<svg version="1.1" id="Layer_1" xmlns="http://www.w3.org/2000/svg" xmlns:xlink="http://www.w3.org/1999/xlink" x="0px" y="0px"
	 viewBox="39 233 515 330" enable-background="new 39 233 515 330" xml:space="preserve">
<rect x="28" y="220" display="none" width="549" height="359"/>
<g>
	
		<image overflow="visible" opacity="0.45" width="167" height="235" xlink:href="909726D5.png"  transform="matrix(1 0 0 1 41 334)">
	</image>
	<g>
		<path fill="#FFFFFF" d="M125.4,363.1c13.3-13.6,26.6-20.3,39.2-20.3c10.3,0,18.3,3.7,24.3,10.6c6,7,9,16.6,9,28.3
			c0,15-5,28.3-14.6,39.2c-10,11.3-21,17-33.6,17c-9,0-17.3-2.7-24.3-8v76.2c0,15.6-4.3,27.9-13,36.9c-8.6,9-19.3,13.3-31.9,13.3
			c-13.3,0-23.6-5.7-30.9-17l16.3-16l3.3,2.7c-1,2.3-1.3,4.3-1.3,5.7c0,5,1.7,9,5,12.6c3.3,3.7,7.3,5.3,12.3,5.3
			c13,0,19.6-13,19.6-39.2v-135c-4.7,11-11,21.3-18.6,31.3l-6.3-5c10.6-14.6,19-31.6,24.3-50.2l21-10.6v22.3H125.4z M125.4,419.6
			c6.7,6.3,14.6,9.6,23.9,9.6c8.6,0,16-3.7,22-11c6-7.3,9-16.6,9-27.6c0-9.6-2.7-17-7.6-22.6c-5.3-5.7-12-8.6-20-8.6
			c-10.3,0-19.6,5.7-27.3,16.6V419.6z"/>
	</g>
</g>
<g>
	
		<image overflow="visible" opacity="0.45" width="228" height="214" xlink:href="909726DB.png"  transform="matrix(1 0 0 1 323 236)">
	</image>
	<g>
		<path fill="#FFFFFF" d="M498.9,419.9c-3.7,0-5.7-1.7-6.7-4.7c-0.7-3-1.3-9.3-1.3-18.6v-60.9l19.3-30.3l0,0l0,0l0.3-0.3l0,0
			c1.3-2.7,9.6-18.3,17-15.6c0,0,3.7,0.3,7,10l5.7-8.6c0,0-6.3-16-15.3-14.6c0,0-8.3,0.7-16,13.6l0,0l-18,28.3v-75.8l-19.6,19.3
			v80.8c0,1-2.7,6-7.3,14.6c-5,8.6-9.3,16-12.6,21.3c-3.3,5-7.3,11-11.6,18l0,0c-6.3,8.6-13,15-20.6,19.6
			c-7.7,4.7-14.6,6.7-20.6,6.7c-13,0-21.6-4.7-25.6-14.3c-1.3-1.3-3.7-7.6-3.7-7.6c0-0.3-0.7-2.3-1.7-5.3c-1-3.3-1.7-7.3-1.7-12
			c0-8.6,2.3-16.3,7-22.3c4.7-6.3,13-11,19.3-12.3c2-0.3,10-1.3,17.6,0.7c5.7,1.3,11.3,6,14.6,10s3,6.3,3,6.3l-33.6,35.9l6,8
			c0,0,30.6-29.3,36.6-39.2c1.3-11-4.7-17-7.6-20.6c-8.6-9.6-23.3-9.6-28.9-9.6c-9.6,0-19.3,4.7-28.6,12.3
			c-9.3,7.6-22.3,23.6-39.6,47.9l6.7,4.7c2.7-3.7,6-8.6,11-14.6c-0.7,3.7-0.7,7-0.7,10c0,12,3.3,21,9.6,27.6
			c6.3,6.7,15,9.6,25.9,9.6c15,0,27.3-3,36.3-8.6c9.3-5.7,17-12.3,26.9-26.3c10-14,16-24.6,24.6-39.6V411c0,8.3,1,14.3,3,18
			c2,3.7,7,5.7,15,5.7c16.6,0,32.3-12,47.2-35.9l-5.7-5C518.5,411.3,507.9,419.9,498.9,419.9z"/>
	</g>
</g>
<g>
	
		<image overflow="visible" opacity="0.45" width="104" height="97" xlink:href="909726DF.png"  transform="matrix(1 0 0 1 246 252)">
	</image>
	<g>
		<path fill="#FFFFFF" d="M327.3,258.3c0,0-8.3-0.3-18.3,11.6c-46.9,52.9-41.6,45.6-54.2,59.2l7.3,7.6c10-9.6,46.6-51.9,46.6-51.9
			s13-17,18.6-12.6c0,0,3.7,1,5.7,10.6l7-7.6C339.9,275.3,336.3,258.6,327.3,258.3z"/>
	</g>
</g>
<g>
	<g opacity="0.45">
		<path d="M338.3,211.1"/>
	</g>
	<g>
		<path d="M337.3,208.1"/>
	</g>
</g>
<g>
	<image overflow="visible" opacity="0.45" width="52" height="54" xlink:href="909726D2.png"  transform="matrix(1 0 0 1 385 346)">
	</image>
	<g>
		<line fill="#FFFFFF" x1="425.7" y1="352.8" x2="393.8" y2="386.7"/>
		<line fill="none" stroke="#FFFFFF" stroke-width="2" stroke-miterlimit="10" x1="425.7" y1="352.8" x2="393.8" y2="386.7"/>
	</g>
</g>
<line display="none" fill="none" stroke="#F39200" stroke-miterlimit="10" x1="407.1" y1="421.6" x2="451.4" y2="378.7"/>
<g>
	
		<image overflow="visible" opacity="0.45" width="146" height="116" xlink:href="909726D3.png"  transform="matrix(1 0 0 1 189 335)">
	</image>
	<g>
		<g>
			<path fill="#FFFFFF" d="M310,396l-1.3-3c0,0-15.6,19.6-23.3,24.3c-7.6,4.7-14.6,6.7-20.6,6.7c-13,0-21.6-4.7-25.6-14.3
				c-1.3-1.3-3.7-7.6-3.7-7.6c0-0.3-0.7-2.3-1.7-5.3c-1-3.3-1.7-7.3-1.7-12c0-8.6,2.3-16.3,7-22.3c4.7-6.3,13-11,19.3-12.3
				c2-0.3,10-1.3,17.6,0.7c5.7,1.3,11.3,6,14.6,10c3.3,4,3,6.3,3,6.3L260.1,403l6,8c0,0,30.6-29.3,36.6-39.2c1.3-11-4.7-17-7.7-20.6
				c-8.6-10-23.6-10-28.9-10c-9.6,0-19.3,4.7-28.6,12.3c-9.3,7.6-22.3,23.6-39.6,47.9l6.7,4.7c2.7-3.7,6-8.6,11-14.6
				c-0.7,3.7-0.7,7-0.7,10c0,12,3.3,21,9.6,27.6c6.3,6.7,15,9.6,25.9,9.6c15,0,27.3-3,36.3-8.6c9.3-5.7,27.6-27.6,27.6-27.6L310,396
				z"/>
			<path fill="#FFFFFF" d="M214.5,399"/>
			<line fill="#FFFFFF" stroke="#FFFFFF" stroke-width="2" stroke-miterlimit="10" x1="289.4" y1="356.1" x2="257.4" y2="390"/>
			<rect x="310" y="394.7" fill="#FFFFFF" stroke="#FFFFFF" stroke-miterlimit="10" width="14.3" height="6"/>
		</g>
	</g>
</g>
</svg>
